<svg version="1.1" xmlns="http://www.w3.org/2000/svg" xmlns:xlink="http://www.w3.org/1999/xlink" width="48" height="48"><defs><linearGradient x1="10.46949" y1="10.46949" x2="71.80469" y2="71.8047" gradientUnits="userSpaceOnUse" id="color-1"><stop offset="0" stop-color="#000000" stop-opacity="0.32"></stop><stop offset="1" stop-color="#000000" stop-opacity="0"></stop></linearGradient><filter id="dropshadow-base"><feColorMatrix type="matrix" values="0 0 0 0 0  0 0 0 0 0  0 0 0 0 0  0 0 0 .8 0"></feColorMatrix> <feOffset dx="0" dy="1"></feOffset> <feGaussianBlur stdDeviation="1"></feGaussianBlur> <feComposite in="SourceGraphic"></feComposite></filter><filter id="dropshadow-banner" x="-10%" y="-10%" width="120%" height="130%"><feColorMatrix type="matrix" values="0 0 0 0 0  0 0 0 0 0  0 0 0 0 0  0 0 0 .4 0"></feColorMatrix> <feOffset dx="0" dy="1"></feOffset> <feGaussianBlur stdDeviation="0.5"></feGaussianBlur> <feComposite in="SourceGraphic"></feComposite></filter></defs><g fill="none" fill-rule="nonzero" stroke="none" stroke-width="none" stroke-linecap="butt" stroke-linejoin="miter" stroke-miterlimit="10" stroke-dasharray="" stroke-dashoffset="0" font-family="none" font-weight="none" font-size="none" text-anchor="none" style="mix-blend-mode: normal"><path d="M7,43c-1.10457,0 -2,-0.89543 -2,-2v-34c0,-1.10457 0.89543,-2 2,-2h34c1.10457,0 2,0.89543 2,2v34c0,1.10457 -0.89543,2 -2,2z" id="base 1 5 1" fill="#03a9f4" stroke-width="1"></path><path d="M10.6903,37.3097c-0.13625,-0.13625 -0.22081,-0.32417 -0.22081,-0.53089v-22.73123c0,-0.34577 0.23304,-0.61638 0.54874,-0.72162l8.47159,-2.85644l9.02033,3.15711l8.03561,-3.11954c0.07516,-0.03006 0.15034,-0.03759 0.23302,-0.03759v-0.00001c0.20672,0 0.39464,0.08457 0.53089,0.22081l5.69032,5.69032v24.61938c0,1.10457 -0.89543,2 -2,2h-24.61939z" fill="url(#color-1)" stroke-width="1"></path><path d="M36.7788,10.46951c-0.08269,0 -0.15786,0.00752 -0.23303,0.03758l-8.03561,3.11953l-9.02033,-3.15712l-8.47159,2.85644c-0.31571,0.10524 -0.54874,0.37585 -0.54874,0.72163v22.73123c0,0.41343 0.33826,0.75169 0.75169,0.75169c0.08269,0 0.15786,-0.00752 0.23303,-0.03758l8.03561,-3.11953l9.02033,3.15712l8.47911,-2.84892c0.31571,-0.11275 0.54122,-0.38336 0.54122,-0.72914v-22.73123c0,-0.41343 -0.33826,-0.75169 -0.75169,-0.75169zM28.51016,34.52372l-9.02033,-3.16463v-17.8828l9.02033,3.16463z" fill="none" stroke-width="0"></path><path d="M37.53049,11.2212v22.73123c0,0.34578 -0.22551,0.61639 -0.54122,0.72914l-8.47911,2.84892l-9.02033,-3.15712l-8.03561,3.11953c-0.07517,0.03007 -0.15034,0.03758 -0.23303,0.03758c-0.41343,0 -0.75169,-0.33826 -0.75169,-0.75169v-22.73123c0,-0.34578 0.23303,-0.61639 0.54874,-0.72163l8.47159,-2.85644l9.02033,3.15712l8.03561,-3.11953c0.07517,-0.03007 0.15034,-0.03758 0.23303,-0.03758c0.41343,0 0.75169,0.33826 0.75169,0.75169zM28.51016,16.64091l-9.02033,-3.16463v17.8828l9.02033,3.16463z" fill="#ffffff" stroke-width="0"></path><path d="M2,24c0,-12.15026 9.84974,-22 22,-22c12.15026,0 22,9.84974 22,22c0,12.15026 -9.84974,22 -22,22c-12.15026,0 -22,-9.84974 -22,-22z" id="base 1 1 1" fill="none" stroke-width="1"></path><g fill="#000000" stroke-width="1" font-family="Roboto, sans-serif" font-weight="normal" font-size="14" text-anchor="start"></g><rect x="2" y="2" width="44" height="22" fill="none" stroke-width="1"></rect><path d="M2,24v-22h44v22z" fill="none" stroke-width="1"></path><path d="M2,24v-22h44v22z" fill="none" stroke-width="1"></path><path d="M2,24v-22h44v22z" fill="none" stroke-width="1"></path><path d="M2,24v-22h44v22z" fill="none" stroke-width="1"></path></g></svg>